Patient4_TMGait_0pt2_02_right_22_EMG.mot
version=1
nRows=33
nColumns=33
inDegrees=no
endheader
time	1LAddLong	2LGlutMax	3LGlutMed	4LIliopsoas	5LSemiMemb	6LBicFemLong	7LRecFem	8LVastMed	9LVastLat	10LGasMed	11LTibAnt	12lTibPost	13LPeroneusLong	14LSol	15LExtDigLong	16LFlexDigLong	17RAddLong	18RGlutMax	19RGlutMed	20RIliopsoas	21RSemiMemb	22RBicFemLong	23RRecFem	24RVastMed	25RVastLat	26RGasMed	27RTibAnt	28RTibPost	29RPeroneusLong	30RSol	31RExtDigLong	32RFlexDigLong
50.78	-0.002136	0.10407	0.16647	0.00061	-0.015717	0.22827	-0.072021	0.03418	0.046082	0.051575	0.14984	-0.050964	0.23483	0.029755	-0.31494	-0.01297	-0.001984	0.075989	-0.7988	-0.11643	0.19257	-0.036926	0.21637	0.16083	0.046692	-0.007324	0.098572	-0.012512	-0.013275	-0.03006	-0.002136	-0.007019
50.781	-0.010834	0.10757	0.001526	0.022888	-0.006714	-0.030365	-0.012207	-0.019836	0.15854	0.031128	-0.37354	-0.042419	0.52017	0.011292	-0.38345	-0.003204	-0.000763	0.091095	-1.2617	-0.10666	0.18051	-0.051575	0.009766	0.14618	0.035553	0	0.080414	-0.009155	0.020752	-0.093079	-0.003052	-0.006866
50.782	-0.007477	0.15106	0.046539	0.002136	0.004578	-0.49484	0.085602	-0.017548	0.29144	0.009308	-0.22873	-0.03952	0.46081	0.058746	-0.40024	0.016632	0.002899	0.15091	-0.39887	-0.05661	0.17593	-0.023041	-0.18524	0.037537	0.014038	-0.009155	-0.015259	-0.003357	0.02243	-0.097809	-0.000458	-0.001984
50.783	-0.016174	0.13534	0.14938	0.002441	0.008698	-0.4512	0.10742	0.014801	0.27893	-0.032196	-0.12756	-0.03952	0.28961	0.11948	0.11932	0.026093	0.010071	0.14358	-0.03479	-0.049896	0.18219	-0.026245	-0.14786	0.056458	-0.025635	-0.013123	0.09491	-0.000153	-0.041656	-0.1001	-0.000458	-0.014801
50.784	-0.012817	0.13123	0.19318	0.006256	0.012512	-0.19012	0.12039	0.037689	0.18723	-0.030975	-0.10666	-0.034943	-0.3714	0.11261	0.48981	0.012207	0.007477	0.11551	0.078125	0.091858	0.17899	-0.041809	-0.20493	0.035553	-0.014191	-0.011139	0.080566	-0.002594	-0.005341	-0.10193	-0.004578	-0.014038
50.785	-0.007935	0.13748	0.19516	0.012512	0.003204	-0.11307	0.13458	0.045166	0.035706	-0.045471	-0.045319	-0.03891	-0.28915	-0.035553	-0.75851	0.006561	0.019836	0.08255	-0.24231	0.21866	0.1767	-0.01358	-0.30197	-0.039368	-0.001526	-0.011749	-0.04303	-0.003357	0.074158	-0.11261	-0.00061	-0.013733
50.786	-0.018463	0.16815	0.12009	0.006561	-0.002441	0.042267	0.16007	0.016785	0.031433	-0.006256	-0.045319	-0.029449	-0.26703	-0.084686	-0.45929	0.011749	0.029449	0.1178	0.087128	0.33203	0.18753	-0.026093	-0.54108	-0.12329	-0.005646	-0.010986	-0.037079	-0.003052	0.038147	-0.049591	-0.005035	-0.016022
50.787	-0.00946	0.20935	-0.002594	0.023346	0.010376	0.22293	0.16937	0.04425	0.036926	0.028839	-0.072021	-0.033112	-0.71213	-0.11292	-0.21042	0.009766	-0.000763	0.10529	0.26032	0.30609	0.18005	-0.025177	-0.57251	-0.14801	0.001373	-0.00061	0.022278	-0.003204	0.031281	0.021973	-0.004272	-0.014038
50.788	-0.00946	0.15625	-0.006104	0.025177	0.005646	0.35812	0.13702	0.079956	0.069275	0.028076	-0.085754	-0.038605	-0.34988	-0.25604	-0.1239	0.016632	-0.021515	0.060272	-0.21469	0.20264	0.168	-0.02243	-0.40009	-0.10788	-0.029755	-0.010834	0.1915	-0.002594	-0.03952	-0.045013	-0.003357	-0.017395
50.789	-0.008392	0.12848	0.05249	0.00351	-0.005035	0.29236	0.10742	0.057983	-0.037231	0.027161	-0.08728	-0.022278	-0.10056	-0.17716	-0.059967	0.021057	-0.043488	0.085754	-0.33783	0.089569	0.15839	-0.017242	-0.30075	-0.034332	-0.009766	-0.001221	0.19089	-0.003815	-0.12802	-0.023193	-0.001831	-0.017242
50.79	0.002136	0.12512	0.061035	-0.018158	-0.006256	0.055389	-0.1152	0.061798	-0.15228	-0.002747	-0.082245	-0.036774	-0.049896	-0.066528	0.14832	0.02243	-0.049896	0.17838	0.46646	-0.085449	0.15396	-0.024414	-0.30289	-0.04837	0.018921	0.002289	0.088959	-0.000458	-0.14038	-0.027924	-0.003967	-0.014191
50.791	-0.000916	0.11322	0.005035	-0.019684	-0.005951	-0.01297	-0.17532	0.042725	-0.15411	0.041962	0.15976	-0.033417	-0.009613	-0.12756	0.39169	0.023346	-0.028839	0.10483	0.11917	-0.16968	0.17487	-0.00351	-0.45517	-0.09079	0.028839	-0.000916	0.2034	-0.001068	0.010681	-0.027924	-0.004272	-0.00946
50.792	0.005493	0.066376	-0.04715	-0.007629	-0.005646	0.10574	-0.027161	0.003052	-0.37415	0.027618	0.22949	-0.033722	0.1265	-0.055389	0.30334	0.033722	-0.00351	0.096893	-0.35873	-0.14496	0.15701	-0.013123	-0.62317	-0.10346	0.026398	0.002899	0.23071	-0.007782	0.015717	0.014801	0	-0.010681
50.793	-0.003204	0.062866	-0.010681	0.00885	-0.012817	-0.1149	0.030518	-0.00473	-0.50186	0.011597	0.23773	-0.035706	0.087433	-0.098724	0.023041	0.02533	-0.007782	0.085297	-0.41733	-0.18173	0.16556	-0.016327	-0.72784	-0.029755	0.010071	-0.007935	0.24506	-0.003815	-0.037079	-0.036621	-0.005341	-0.007935
50.794	0.002441	0.074463	-0.053101	0.00946	-0.005341	-0.02594	-0.095978	-0.049896	-0.44098	0.013885	0.14832	-0.024261	-0.041962	-0.19836	0.056	0.024872	0.00061	0.058899	-0.49972	-0.17258	0.15274	-0.012817	-0.62851	0.020599	0.006256	-0.002136	0.37308	-0.004425	-0.084076	-0.088959	-0.007477	-0.008087
50.795	0.002747	0.043793	-0.18005	0.001068	0.006866	-0.02533	-0.12543	-0.067444	-0.23514	0.02243	-0.051575	-0.034485	0.076447	-0.1619	0.17792	0.023346	0.007019	0.055695	-0.52216	-0.023193	0.14847	-0.020447	-0.51971	0.027008	0.011597	-0.002594	0.34897	-0.005035	-0.30518	-0.11459	-0.005798	-0.006104
50.796	0.013885	0.012054	-0.15366	-0.005341	0.014191	-0.070953	-0.019989	-0.059814	-0.10696	0.011292	-0.18402	-0.032806	0.020142	-0.1416	0.20233	0.02182	0.012512	0.068054	-0.45029	0.121	0.15167	-0.012054	-0.44983	-0.030518	-0.000763	0.000763	0.27573	-0.004272	-0.33814	-0.088043	-0.010529	-0.000305
50.797	0.010223	0.054932	0.007935	-0.006256	0.009918	0.021515	0.1918	-0.041656	-0.087128	-0.016632	-0.17303	-0.026855	0.096893	-0.079651	0.16937	0.027618	0.006866	0.052338	-0.45822	0.076447	0.15366	-0.02182	-0.401	0.006256	0.025787	0.00412	0.069275	-0.002289	-0.2063	-0.12894	-0.00473	0.000916
50.798	0.003357	0.076752	0.066528	0.005035	-0.006256	0.024414	0.24124	-0.003357	-0.11444	0.005493	-0.16312	-0.0354	0.046234	-0.010376	-0.001373	0.008087	0.006256	0.080872	0.35507	-0.14816	0.14893	-0.011749	-0.32669	0.014954	0.023041	-0.000763	0.039215	-0.006104	-0.08316	-0.18601	-0.005493	-0.003204
50.799	0.002594	0.057526	0.00473	-0.011292	-0.001221	0.057678	0.11581	-0.010986	-0.070953	0.011749	-0.1387	-0.029144	0.016785	0.029907	0.01358	0.005951	-0.001221	0.10635	-0.0737	-0.19486	0.14862	-0.000916	-0.439	0.027466	-0.015564	-0.019073	-0.31281	-0.003357	0.017853	-0.12558	-0.001526	-0.003357
50.8	0.018616	0.074921	-0.027466	-0.018311	0.001984	-0.050354	0.048523	-0.007324	0.11688	0.020599	-0.11948	-0.030823	0.008087	0.023193	0.45837	0.011902	-0.020447	0.089111	0.06958	-0.25375	0.15091	0.020294	-0.41977	0.029297	-0.01236	-0.012512	-0.069885	-0.001068	0.1236	-0.10956	-0.006256	-0.007477
50.801	0.0177	0.1384	0.04715	0.013275	0.006256	-0.19516	0.03418	0.006561	0.25589	0.016174	0.055084	-0.029907	0.020599	-0.014191	-0.19455	0.007782	-0.030518	0.077515	0.005646	-0.06134	0.15182	0.01236	-0.37338	0.067749	0.004883	-0.014343	-0.014648	-0.002441	0.16159	-0.08606	-0.007324	-0.002289
50.802	0.028229	0.1265	-0.008545	0.045624	0.007019	-0.22949	0.014343	0.012665	0.30533	0.028687	0.13672	-0.02533	-0.015564	-0.007935	0.029297	0.015564	-0.038147	0.046692	-0.42191	0.36285	0.13718	-0.000763	-0.17303	0.18188	0.018768	-0.012054	-0.32196	-0.001526	0.18082	-0.052948	-0.005341	-0.00351
50.803	0.031281	0.12711	-0.048218	0.032196	0.004425	-0.080261	0.002441	0.006714	0.21576	0.029755	0.061188	-0.023651	-0.023193	0.045471	-0.014496	0.010071	-0.024109	0.065308	-0.71442	0.48767	0.1413	0.002441	-0.085449	0.25833	0.030975	0.000763	-0.21271	-0.001221	0.18936	-0.12039	-0.00824	0.009308
50.804	0.022583	0.16007	-0.052338	0.045929	0.022583	0.063324	-0.085144	-0.03891	0.052338	0.029602	-0.027618	0.006561	0.021667	0.034332	0.059967	0.020752	-0.020142	0.035248	-0.98831	0.27359	0.12924	-0.015869	-0.055389	0.15823	0.023956	-0.001068	-0.40024	0.000458	0.094604	-0.045013	-0.000916	-0.002594
50.805	0.013275	0.21988	-0.099487	0.037079	0.00061	0.18219	0.007782	-0.041504	0.001373	0.033264	0.002747	-0.033112	0.023956	0.048676	0.040283	0.022278	-0.031128	0.098572	-0.92407	0.033875	0.12634	0.007782	0.089874	0.052032	0.019836	-0.011902	-0.30731	-0.003967	0.12955	0.010681	0.003357	-0.001373
50.806	-0.005341	0.24368	0.17364	0.01358	0.012054	0.19104	0.11337	-0.034332	-0.002289	0.013275	-0.047302	-0.019073	0.09552	0.015411	-0.18997	0.014038	-0.012817	0.15976	-0.5072	-0.006866	0.11566	0.001221	0.12787	-0.006256	-0.007324	-0.010681	-0.5719	-0.001678	0.20462	-0.06958	-0.005188	0.002899
50.807	-0.006866	0.20203	-0.001221	0.022278	0.005646	0.10757	0.1149	-0.022125	-0.044861	0.027161	-0.092163	-0.006409	0.1889	-0.066833	-0.22324	0.020905	0.026093	0.093384	0.20996	-0.01297	0.10208	0.006409	0.096283	-0.055237	-0.010834	-0.009918	-0.24963	-0.005493	0.10147	-0.050812	-0.006866	0.002594
50.808	0.001831	0.15579	0.1033	-0.019226	-0.001068	0.078583	0.065918	0.005188	-0.062256	0.033264	-0.057068	0.000916	0.10056	-0.071716	-0.19959	0.019989	0.046692	0.069427	0.52078	0.026703	0.099487	-0.007782	0.041504	-0.057983	-0.01709	-0.013428	-0.046082	-0.003967	-0.006561	0.001984	-0.010681	0.004883
50.809	-0.007477	0.11856	0.23453	-0.010834	0.000153	0.19714	0.005035	0.016174	0.021667	0.009918	-0.019989	-0.002899	0.17471	-0.048828	-0.13306	0.014038	0.018311	0.019836	0.42969	0.08606	0.090485	-0.00946	-0.065308	-0.054779	0.018311	-0.014343	-0.17227	-0.00351	-0.095062	0.088654	-0.007477	0.003815
50.81	-0.006409	0.12558	0.004578	-0.029297	0.000763	0.19547	-0.044556	0.040588	0.14328	0.013275	0.027618	-0.005493	0.23682	-0.027313	-0.056152	0.011292	0.024872	-0.009918	-0.009308	0.11002	0.079041	-0.011902	-0.17853	-0.10208	-0.010681	-0.002136	-0.049438	-0.003357	-0.084534	0.12711	-0.008698	0.009766
50.811	-0.013275	0.18845	-0.063934	-0.032196	-0.007782	0.12817	0.12528	0.050354	0.19913	0.038757	0.074921	0.002441	0.095215	-0.041504	0.025482	0.013275	0.025482	-0.062561	-0.36911	-0.017853	0.09491	-0.02533	-0.33188	-0.1268	-0.024414	0.000153	0.58563	0.002441	-0.054321	-0.059357	-0.005798	0.017853
50.812	-0.005188	0.15228	-0.057983	-0.010834	-0.003815	0.15778	0.1918	0.030975	0.19775	0.016327	0.0354	0.006866	0.1207	0.069427	0.010071	0.015564	0.10742	-0.045929	-0.15366	-0.092468	0.11795	-0.042419	-0.41092	-0.12207	-0.038757	-0.006256	0.77255	-0.003052	-0.13046	-0.11581	-0.006409	0.021973
